<?xml version="1.0" standalone="yes"?>
<svg xmlns="http://www.w3.org/2000/svg" width="120" height="120">
<path style="fill:#ffffff; stroke:none;" d="M0 0L0 120L120 120L120 0L0 0z"/>
<path style="fill:#b4b4b4; stroke:none;" d="M73 24L74 25L73 24z"/>
<path style="fill:#7d7d7d; stroke:none;" d="M74.6667 24.3333L75.3333 24.6667L74.6667 24.3333z"/>
<path style="fill:#555555; stroke:none;" d="M76 24L77 25L76 24z"/>
<path style="fill:#2f2f2f; stroke:none;" d="M60 47C43.269 46.2798 33.8598 37.0572 21 28C17.9895 38.7128 20.9826 44.1626 27 53L19 51C21.0373 60.7148 26.293 62.8846 33 69L26 69C29.568 77.0896 35.468 78.7536 43 82C34.1519 85.7932 26.9649 89.7253 17 89L17 90C43.2154 100.752 73.9591 97.898 89.5355 71C94.6228 62.2149 93.2232 52.8058 96.6034 44.0394C98.1197 40.1069 102.552 37.4046 105 34L95 36L95 35L103 26C99.9337 27.2577 96.4272 29.499 93 29.1728C81.0716 28.0375 66.3752 18.5492 60.8002 37C59.8232 40.2331 60.0022 43.663 60 47z"/>
<path style="fill:#555555; stroke:none;" d="M79.6667 24.3333L80.3333 24.6667L79.6667 24.3333z"/>
<path style="fill:#7d7d7d; stroke:none;" d="M81 24L82 25L81 24z"/>
<path style="fill:#b4b4b4; stroke:none;" d="M82 24L83 25L82 24M70 25L71 26L70 25z"/>
<path style="fill:#7d7d7d; stroke:none;" d="M71 25L72 26L71 25z"/>
<path style="fill:#555555; stroke:none;" d="M84 25L85 26L84 25z"/>
<path style="fill:#b4b4b4; stroke:none;" d="M85 25L86 26L85 25M103.333 25.6667L103.667 26.3333L103.333 25.6667M68 26L69 27L68 26z"/>
<path style="fill:#555555; stroke:none;" d="M69 26L70 27L69 26M86 26L87 27L86 26z"/>
<path style="fill:#b4b4b4; stroke:none;" d="M87 26L88 27L87 26M101 26L102 27L101 26M21 27L22 28L21 27z"/>
<path style="fill:#7d7d7d; stroke:none;" d="M67 27L68 28L67 27z"/>
<path style="fill:#555555; stroke:none;" d="M88 27L89 28L88 27z"/>
<path style="fill:#b4b4b4; stroke:none;" d="M99 27L100 28L99 27z"/>
<path style="fill:#555555; stroke:none;" d="M102 27L103 28L102 27z"/>
<path style="fill:#b4b4b4; stroke:none;" d="M22 28L23 29L22 28z"/>
<path style="fill:#555555; stroke:none;" d="M66 28L67 29L66 28z"/>
<path style="fill:#b4b4b4; stroke:none;" d="M90 28L91 29L90 28M96 28L97 29L96 28z"/>
<path style="fill:#7d7d7d; stroke:none;" d="M97 28L98 29L97 28z"/>
<path style="fill:#b4b4b4; stroke:none;" d="M102 28L103 29L102 28z"/>
<path style="fill:#7d7d7d; stroke:none;" d="M20 29L21 30L20 29z"/>
<path style="fill:#b4b4b4; stroke:none;" d="M23 29L24 30L23 29M91.6667 29.3333L92.3333 29.6667L91.6667 29.3333z"/>
<path style="fill:#7d7d7d; stroke:none;" d="M93.6667 29.3333L94.3333 29.6667L93.6667 29.3333M101 29L102 30L101 29z"/>
<path style="fill:#b4b4b4; stroke:none;" d="M24 30L25 31L24 30M19 31L20 32L19 31M25 31L26 32L25 31z"/>
<path style="fill:#555555; stroke:none;" d="M63 31L64 32L63 31z"/>
<path style="fill:#b4b4b4; stroke:none;" d="M100 31L101 32L100 31z"/>
<path style="fill:#7d7d7d; stroke:none;" d="M19 32L20 33L19 32z"/>
<path style="fill:#b4b4b4; stroke:none;" d="M26 32L27 33L26 32z"/>
<path style="fill:#7d7d7d; stroke:none;" d="M62 32L63 33L62 32z"/>
<path style="fill:#b4b4b4; stroke:none;" d="M99 32L100 33L99 32z"/>
<path style="fill:#555555; stroke:none;" d="M19 33L20 34L19 33z"/>
<path style="fill:#b4b4b4; stroke:none;" d="M27 33L28 34L27 33M98 33L99 34L98 33M103 33L104 34L103 33z"/>
<path style="fill:#555555; stroke:none;" d="M104 33L105 34L104 33z"/>
<path style="fill:#7d7d7d; stroke:none;" d="M105 33L106 34L105 33z"/>
<path style="fill:#b4b4b4; stroke:none;" d="M28 34L29 35L28 34z"/>
<path style="fill:#7d7d7d; stroke:none;" d="M61 34L62 35L61 34M96 34L98 36L96 34z"/>
<path style="fill:#b4b4b4; stroke:none;" d="M100 34L101 35L100 34z"/>
<path style="fill:#7d7d7d; stroke:none;" d="M101 34L102 35L101 34z"/>
<path style="fill:#555555; stroke:none;" d="M102 34L103 35L102 34z"/>
<path style="fill:#7d7d7d; stroke:none;" d="M29 35L30 36L29 35z"/>
<path style="fill:#555555; stroke:none;" d="M95 35L96 36L95 35z"/>
<path style="fill:#b4b4b4; stroke:none;" d="M96 35L97 36L96 35z"/>
<path style="fill:#555555; stroke:none;" d="M98 35L99 36L98 35z"/>
<path style="fill:#b4b4b4; stroke:none;" d="M18 36L19 37L18 36z"/>
<path style="fill:#555555; stroke:none;" d="M30 36L31 37L30 36z"/>
<path style="fill:#b4b4b4; stroke:none;" d="M31 36L32 37L31 36z"/>
<path style="fill:#7d7d7d; stroke:none;" d="M60 36L61 37L60 36z"/>
<path style="fill:#b4b4b4; stroke:none;" d="M103 36L104 37L103 36M32 37L33 38L32 37z"/>
<path style="fill:#555555; stroke:none;" d="M60 37L61 38L60 37z"/>
<path style="fill:#b4b4b4; stroke:none;" d="M102 37L103 38L102 37z"/>
<path style="fill:#555555; stroke:none;" d="M33 38L34 39L33 38z"/>
<path style="fill:#b4b4b4; stroke:none;" d="M34 38L35 39L34 38M101 38L102 39L101 38z"/>
<path style="fill:#555555; stroke:none;" d="M19 39L20 40L19 39z"/>
<path style="fill:#7d7d7d; stroke:none;" d="M35 39L36 40L35 39z"/>
<path style="fill:#b4b4b4; stroke:none;" d="M59.3333 39.6667L59.6667 40.3333L59.3333 39.6667M100 39L101 40L100 39z"/>
<path style="fill:#7d7d7d; stroke:none;" d="M19 40L20 41L19 40z"/>
<path style="fill:#b4b4b4; stroke:none;" d="M37 40L38 41L37 40z"/>
<path style="fill:#555555; stroke:none;" d="M98 40L99 41L98 40z"/>
<path style="fill:#b4b4b4; stroke:none;" d="M19 41L20 42L19 41z"/>
<path style="fill:#555555; stroke:none;" d="M38 41L39 42L38 41z"/>
<path style="fill:#b4b4b4; stroke:none;" d="M39 41L40 42L39 41z"/>
<path style="fill:#7d7d7d; stroke:none;" d="M59 41L59 44L60 44L59 41M97 41L98 42L97 41M41 42L42 43L41 42z"/>
<path style="fill:#555555; stroke:none;" d="M96 42L96 48L97 48L96 42M20 43L21 44L20 43z"/>
<path style="fill:#7d7d7d; stroke:none;" d="M43 43L44 44L43 43z"/>
<path style="fill:#b4b4b4; stroke:none;" d="M44 43L45 44L44 43M20 44L21 45L20 44z"/>
<path style="fill:#555555; stroke:none;" d="M45 44L46 45L45 44z"/>
<path style="fill:#7d7d7d; stroke:none;" d="M46 44L47 45L46 44z"/>
<path style="fill:#b4b4b4; stroke:none;" d="M47 44L48 45L47 44M59 44L60 45L59 44z"/>
<path style="fill:#555555; stroke:none;" d="M21 45L22 46L21 45M49 45L50 46L49 45z"/>
<path style="fill:#7d7d7d; stroke:none;" d="M50 45L51 46L50 45z"/>
<path style="fill:#b4b4b4; stroke:none;" d="M51 45L52 46L51 45M21 46L22 47L21 46z"/>
<path style="fill:#555555; stroke:none;" d="M54 46L55 47L54 46z"/>
<path style="fill:#7d7d7d; stroke:none;" d="M55 46L55 47L58 47L55 46z"/>
<path style="fill:#b4b4b4; stroke:none;" d="M58.6667 46.3333L59.3333 46.6667L58.6667 46.3333z"/>
<path style="fill:#7d7d7d; stroke:none;" d="M22 47L23 48L22 47z"/>
<path style="fill:#555555; stroke:none;" d="M23 48L24 49L23 48z"/>
<path style="fill:#7d7d7d; stroke:none;" d="M96.3333 48.6667L96.6667 49.3333L96.3333 48.6667z"/>
<path style="fill:#555555; stroke:none;" d="M24 49L25 50L24 49z"/>
<path style="fill:#b4b4b4; stroke:none;" d="M18.3333 50.6667L18.6667 51.3333L18.3333 50.6667z"/>
<path style="fill:#555555; stroke:none;" d="M19 50L20 51L19 50z"/>
<path style="fill:#b4b4b4; stroke:none;" d="M20 50L21 51L20 50z"/>
<path style="fill:#7d7d7d; stroke:none;" d="M25 50L27 52L25 50z"/>
<path style="fill:#b4b4b4; stroke:none;" d="M96.3333 50.6667L96.6667 51.3333L96.3333 50.6667z"/>
<path style="fill:#7d7d7d; stroke:none;" d="M22 51L23 52L22 51z"/>
<path style="fill:#b4b4b4; stroke:none;" d="M23.6667 51.3333L24.3333 51.6667L23.6667 51.3333z"/>
<path style="fill:#ffffff; stroke:none;" d="M25 51L26 52L25 51z"/>
<path style="fill:#555555; stroke:none;" d="M26 52L27 53L26 52M19 53L20 54L19 53z"/>
<path style="fill:#7d7d7d; stroke:none;" d="M19 54L20 55L19 54z"/>
<path style="fill:#555555; stroke:none;" d="M95 54L96 55L95 54z"/>
<path style="fill:#b4b4b4; stroke:none;" d="M19 55L20 56L19 55z"/>
<path style="fill:#7d7d7d; stroke:none;" d="M95 55L96 56L95 55z"/>
<path style="fill:#b4b4b4; stroke:none;" d="M95 56L96 57L95 56z"/>
<path style="fill:#7d7d7d; stroke:none;" d="M20 57L21 58L20 57z"/>
<path style="fill:#555555; stroke:none;" d="M94 58L95 59L94 58z"/>
<path style="fill:#7d7d7d; stroke:none;" d="M21 59L22 60L21 59M94 59L95 60L94 59z"/>
<path style="fill:#555555; stroke:none;" d="M22 60L23 61L22 60z"/>
<path style="fill:#b4b4b4; stroke:none;" d="M94 60L95 61L94 60M22 61L23 62L22 61z"/>
<path style="fill:#555555; stroke:none;" d="M93 61L94 62L93 61z"/>
<path style="fill:#b4b4b4; stroke:none;" d="M23 62L24 63L23 62z"/>
<path style="fill:#7d7d7d; stroke:none;" d="M93 62L94 63L93 62z"/>
<path style="fill:#b4b4b4; stroke:none;" d="M24 63L25 64L24 63M93 63L94 64L93 63M25 64L26 65L25 64z"/>
<path style="fill:#555555; stroke:none;" d="M26 64L27 65L26 64M92 64L93 65L92 64z"/>
<path style="fill:#7d7d7d; stroke:none;" d="M27 65L28 66L27 65z"/>
<path style="fill:#b4b4b4; stroke:none;" d="M92 65L93 66L92 65M28 66L29 67L28 66z"/>
<path style="fill:#7d7d7d; stroke:none;" d="M29 66L30 67L29 66z"/>
<path style="fill:#b4b4b4; stroke:none;" d="M31 67L25 70L31 67z"/>
<path style="fill:#7d7d7d; stroke:none;" d="M32.3333 67.6667L32.6667 68.3333L32.3333 67.6667z"/>
<path style="fill:#b4b4b4; stroke:none;" d="M91 67L92 68L91 67M90 69L91 70L90 69z"/>
<path style="fill:#555555; stroke:none;" d="M26 70L27 71L26 70z"/>
<path style="fill:#b4b4b4; stroke:none;" d="M26 71L27 72L26 71M89 71L90 72L89 71z"/>
<path style="fill:#555555; stroke:none;" d="M27 72L28 73L27 72M88 72L89 73L88 72z"/>
<path style="fill:#b4b4b4; stroke:none;" d="M28 74L29 75L28 74M87 74L88 75L87 74M29 75L30 76L29 75z"/>
<path style="fill:#555555; stroke:none;" d="M86 75L87 76L86 75z"/>
<path style="fill:#b4b4b4; stroke:none;" d="M30 76L31 77L30 76M31 77L32 78L31 77z"/>
<path style="fill:#555555; stroke:none;" d="M32 77L33 78L32 77z"/>
<path style="fill:#b4b4b4; stroke:none;" d="M85 77L86 78L85 77z"/>
<path style="fill:#7d7d7d; stroke:none;" d="M33 78L34 79L33 78z"/>
<path style="fill:#b4b4b4; stroke:none;" d="M84 78L85 79L84 78M34 79L35 80L34 79z"/>
<path style="fill:#7d7d7d; stroke:none;" d="M35 79L36 80L35 79M83 79L84 80L83 79z"/>
<path style="fill:#b4b4b4; stroke:none;" d="M37 80L38 81L37 80z"/>
<path style="fill:#7d7d7d; stroke:none;" d="M38 80L39 81L38 80z"/>
<path style="fill:#555555; stroke:none;" d="M39 80L40 81L39 80z"/>
<path style="fill:#7d7d7d; stroke:none;" d="M82 80L83 81L82 80z"/>
<path style="fill:#b4b4b4; stroke:none;" d="M41 81L42 82L41 81z"/>
<path style="fill:#555555; stroke:none;" d="M42 81L43 82L42 81z"/>
<path style="fill:#7d7d7d; stroke:none;" d="M81 81L82 82L81 81z"/>
<path style="fill:#555555; stroke:none;" d="M41 82L42 83L41 82z"/>
<path style="fill:#7d7d7d; stroke:none;" d="M80 82L81 83L80 82M39 83L40 84L39 83M79 83L80 84L79 83z"/>
<path style="fill:#b4b4b4; stroke:none;" d="M37 84L38 85L37 84z"/>
<path style="fill:#7d7d7d; stroke:none;" d="M78 84L79 85L78 84z"/>
<path style="fill:#b4b4b4; stroke:none;" d="M35 85L36 86L35 85z"/>
<path style="fill:#555555; stroke:none;" d="M36 85L37 86L36 85z"/>
<path style="fill:#b4b4b4; stroke:none;" d="M77 85L78 86L77 85M32 86L33 87L32 86z"/>
<path style="fill:#7d7d7d; stroke:none;" d="M33 86L34 87L33 86z"/>
<path style="fill:#555555; stroke:none;" d="M75 86L76 87L75 86z"/>
<path style="fill:#b4b4b4; stroke:none;" d="M76 86L77 87L76 86M29 87L30 88L29 87z"/>
<path style="fill:#7d7d7d; stroke:none;" d="M30 87L31 88L30 87z"/>
<path style="fill:#555555; stroke:none;" d="M31 87L32 88L31 87z"/>
<path style="fill:#7d7d7d; stroke:none;" d="M74 87L75 88L74 87z"/>
<path style="fill:#b4b4b4; stroke:none;" d="M16 88L17 89L16 88M24.6667 88.3333L25.3333 88.6667L24.6667 88.3333z"/>
<path style="fill:#7d7d7d; stroke:none;" d="M26 88L27 89L26 88z"/>
<path style="fill:#555555; stroke:none;" d="M27 88L28 89L27 88z"/>
<path style="fill:#b4b4b4; stroke:none;" d="M73 88L74 89L73 88z"/>
<path style="fill:#7d7d7d; stroke:none;" d="M16 89L17 90L16 89z"/>
<path style="fill:#555555; stroke:none;" d="M19 89L20 90L19 89z"/>
<path style="fill:#7d7d7d; stroke:none;" d="M71 89L72 90L71 89z"/>
<path style="fill:#b4b4b4; stroke:none;" d="M17 90L18 91L17 90z"/>
<path style="fill:#555555; stroke:none;" d="M18 90L19 91L18 90M69 90L70 91L69 90z"/>
<path style="fill:#b4b4b4; stroke:none;" d="M70 90L71 91L70 90M19 91L20 92L19 91z"/>
<path style="fill:#555555; stroke:none;" d="M20 91L21 92L20 91M67 91L68 92L67 91z"/>
<path style="fill:#b4b4b4; stroke:none;" d="M68 91L69 92L68 91M21 92L22 93L21 92z"/>
<path style="fill:#7d7d7d; stroke:none;" d="M22 92L23 93L22 92z"/>
<path style="fill:#555555; stroke:none;" d="M65 92L66 93L65 92z"/>
<path style="fill:#b4b4b4; stroke:none;" d="M66 92L67 93L66 92z"/>
<path style="fill:#7d7d7d; stroke:none;" d="M24 93L25 94L24 93z"/>
<path style="fill:#555555; stroke:none;" d="M25 93L26 94L25 93M62 93L63 94L62 93z"/>
<path style="fill:#7d7d7d; stroke:none;" d="M63 93L64 94L63 93z"/>
<path style="fill:#b4b4b4; stroke:none;" d="M64 93L65 94L64 93M26 94L27 95L26 94z"/>
<path style="fill:#7d7d7d; stroke:none;" d="M27 94L28 95L27 94z"/>
<path style="fill:#555555; stroke:none;" d="M28 94L29 95L28 94M59 94L60 95L59 94z"/>
<path style="fill:#7d7d7d; stroke:none;" d="M60 94L61 95L60 94z"/>
<path style="fill:#b4b4b4; stroke:none;" d="M61 94L62 95L61 94M30 95L31 96L30 95z"/>
<path style="fill:#7d7d7d; stroke:none;" d="M31 95L32 96L31 95z"/>
<path style="fill:#555555; stroke:none;" d="M32 95L33 96L32 95M55 95L56 96L55 95z"/>
<path style="fill:#7d7d7d; stroke:none;" d="M56 95L57 96L56 95z"/>
<path style="fill:#b4b4b4; stroke:none;" d="M57 95L58 96L57 95M34.6667 96.3333L35.3333 96.6667L34.6667 96.3333z"/>
<path style="fill:#7d7d7d; stroke:none;" d="M36.6667 96.3333L37.3333 96.6667L36.6667 96.3333z"/>
<path style="fill:#555555; stroke:none;" d="M38 96L38 97L42 97L38 96M46 96L46 97L50 97L46 96z"/>
<path style="fill:#7d7d7d; stroke:none;" d="M50.6667 96.3333L51.3333 96.6667L50.6667 96.3333z"/>
<path style="fill:#b4b4b4; stroke:none;" d="M52.6667 96.3333L53.3333 96.6667L52.6667 96.3333z"/>
</svg>
