<?xml version="1.0" standalone="yes"?>
<svg xmlns="http://www.w3.org/2000/svg" width="120" height="120">
<path style="fill:#ffffff; stroke:none;" d="M0 0L0 120L120 120L120 0L0 0z"/>
<path style="fill:#7c7c7c; stroke:none;" d="M43 31L44 32L43 31z"/>
<path style="fill:#2f2f2f; stroke:none;" d="M43 32L43 88L91 61L91 59L43 32z"/>
<path style="fill:#7c7c7c; stroke:none;" d="M45 32L46 33L45 32z"/>
<path style="fill:#b2b2b2; stroke:none;" d="M47 33L48 34L47 33z"/>
<path style="fill:#555555; stroke:none;" d="M48 34L49 35L48 34z"/>
<path style="fill:#b2b2b2; stroke:none;" d="M49 34L50 35L49 34z"/>
<path style="fill:#7c7c7c; stroke:none;" d="M50 35L51 36L50 35z"/>
<path style="fill:#b2b2b2; stroke:none;" d="M52 36L53 37L52 36z"/>
<path style="fill:#555555; stroke:none;" d="M53 37L54 38L53 37z"/>
<path style="fill:#b2b2b2; stroke:none;" d="M54 37L55 38L54 37z"/>
<path style="fill:#555555; stroke:none;" d="M55 38L56 39L55 38z"/>
<path style="fill:#b2b2b2; stroke:none;" d="M56 38L57 39L56 38z"/>
<path style="fill:#7c7c7c; stroke:none;" d="M57 39L58 40L57 39z"/>
<path style="fill:#b2b2b2; stroke:none;" d="M59 40L60 41L59 40z"/>
<path style="fill:#555555; stroke:none;" d="M60 41L61 42L60 41z"/>
<path style="fill:#b2b2b2; stroke:none;" d="M61 41L62 42L61 41z"/>
<path style="fill:#7c7c7c; stroke:none;" d="M62 42L63 43L62 42M64 43L65 44L64 43z"/>
<path style="fill:#555555; stroke:none;" d="M65 44L66 45L65 44z"/>
<path style="fill:#b2b2b2; stroke:none;" d="M66 44L67 45L66 44z"/>
<path style="fill:#555555; stroke:none;" d="M67 45L68 46L67 45z"/>
<path style="fill:#b2b2b2; stroke:none;" d="M68 45L69 46L68 45z"/>
<path style="fill:#7c7c7c; stroke:none;" d="M69 46L70 47L69 46z"/>
<path style="fill:#b2b2b2; stroke:none;" d="M71 47L72 48L71 47z"/>
<path style="fill:#555555; stroke:none;" d="M72 48L73 49L72 48z"/>
<path style="fill:#b2b2b2; stroke:none;" d="M73 48L74 49L73 48z"/>
<path style="fill:#7c7c7c; stroke:none;" d="M74 49L75 50L74 49M76 50L77 51L76 50z"/>
<path style="fill:#b2b2b2; stroke:none;" d="M78 51L79 52L78 51z"/>
<path style="fill:#555555; stroke:none;" d="M79 52L80 53L79 52z"/>
<path style="fill:#b2b2b2; stroke:none;" d="M80 52L81 53L80 52z"/>
<path style="fill:#7c7c7c; stroke:none;" d="M81 53L82 54L81 53M83 54L84 55L83 54z"/>
<path style="fill:#555555; stroke:none;" d="M84 55L85 56L84 55z"/>
<path style="fill:#b2b2b2; stroke:none;" d="M85 55L86 56L85 55z"/>
<path style="fill:#555555; stroke:none;" d="M86 56L87 57L86 56z"/>
<path style="fill:#b2b2b2; stroke:none;" d="M87 56L88 57L87 56z"/>
<path style="fill:#7c7c7c; stroke:none;" d="M88 57L89 58L88 57z"/>
<path style="fill:#b2b2b2; stroke:none;" d="M90 58L91 59L90 58z"/>
<path style="fill:#555555; stroke:none;" d="M91.3333 59.6667L91.6667 60.3333L91.3333 59.6667z"/>
<path style="fill:#b2b2b2; stroke:none;" d="M92.3333 59.6667L92.6667 60.3333L92.3333 59.6667M90 61L91 62L90 61z"/>
<path style="fill:#7c7c7c; stroke:none;" d="M88 62L89 63L88 62z"/>
<path style="fill:#555555; stroke:none;" d="M86 63L87 64L86 63z"/>
<path style="fill:#b2b2b2; stroke:none;" d="M87 63L88 64L87 63z"/>
<path style="fill:#555555; stroke:none;" d="M84 64L85 65L84 64z"/>
<path style="fill:#b2b2b2; stroke:none;" d="M85 64L86 65L85 64z"/>
<path style="fill:#7c7c7c; stroke:none;" d="M83 65L84 66L83 65M81 66L82 67L81 66z"/>
<path style="fill:#555555; stroke:none;" d="M79 67L80 68L79 67z"/>
<path style="fill:#b2b2b2; stroke:none;" d="M80 67L81 68L80 67M78 68L79 69L78 68z"/>
<path style="fill:#7c7c7c; stroke:none;" d="M76 69L77 70L76 69z"/>
<path style="fill:#555555; stroke:none;" d="M74 70L75 71L74 70M72 71L73 72L72 71z"/>
<path style="fill:#b2b2b2; stroke:none;" d="M73 71L74 72L73 71M71 72L72 73L71 72z"/>
<path style="fill:#7c7c7c; stroke:none;" d="M69 73L70 74L69 73z"/>
<path style="fill:#555555; stroke:none;" d="M67 74L68 75L67 74z"/>
<path style="fill:#b2b2b2; stroke:none;" d="M68 74L69 75L68 74z"/>
<path style="fill:#555555; stroke:none;" d="M65 75L66 76L65 75z"/>
<path style="fill:#b2b2b2; stroke:none;" d="M66 75L67 76L66 75z"/>
<path style="fill:#7c7c7c; stroke:none;" d="M64 76L65 77L64 76M62 77L63 78L62 77z"/>
<path style="fill:#555555; stroke:none;" d="M60 78L61 79L60 78z"/>
<path style="fill:#b2b2b2; stroke:none;" d="M61 78L62 79L61 78M59 79L60 80L59 79z"/>
<path style="fill:#7c7c7c; stroke:none;" d="M57 80L58 81L57 80z"/>
<path style="fill:#555555; stroke:none;" d="M55 81L56 82L55 81z"/>
<path style="fill:#b2b2b2; stroke:none;" d="M56 81L57 82L56 81z"/>
<path style="fill:#555555; stroke:none;" d="M53 82L54 83L53 82z"/>
<path style="fill:#b2b2b2; stroke:none;" d="M54 82L55 83L54 82M52 83L53 84L52 83z"/>
<path style="fill:#7c7c7c; stroke:none;" d="M50 84L51 85L50 84z"/>
<path style="fill:#555555; stroke:none;" d="M48 85L49 86L48 85z"/>
<path style="fill:#b2b2b2; stroke:none;" d="M49 85L50 86L49 85M47 86L48 87L47 86z"/>
<path style="fill:#7c7c7c; stroke:none;" d="M45 87L46 88L45 87M43 88L44 89L43 88z"/>
</svg>
